<?xml version="1.0" encoding="UTF-8"?>
<svg width="294px" height="106px" viewBox="0 0 294 106" version="1.1" xmlns="http://www.w3.org/2000/svg" xmlns:xlink="http://www.w3.org/1999/xlink">
    <!-- Generator: Sketch 42 (36781) - http://www.bohemiancoding.com/sketch -->
    <title>Logo</title>
    <desc>Created with Sketch.</desc>
    <defs>
        <polygon id="path-1" points="67.2273 78.4393939 0.883453846 78.4393939 0.883453846 0.402672727 67.2273 0.402672727"></polygon>
        <polygon id="path-3" points="68.9236154 0.4017 68.9236154 55.805003 0.187707692 55.805003 0.187707692 0.4017 68.9236154 0.4017"></polygon>
    </defs>
    <g id="Page-1" stroke="none" stroke-width="1" fill="none" fill-rule="evenodd">
        <g id="Desktop-HD" transform="translate(-798.000000, -182.000000)">
            <g id="Group-16" transform="translate(758.000000, 162.000000)">
                <g id="Logo" transform="translate(40.000000, 20.000000)">
                    <path d="M61.0264846,55.1268864 C61.0264846,59.220447 60.5612538,62.7854924 59.6437154,65.7215076 C58.7374846,68.6315833 57.2787923,71.0634015 55.3080231,72.9504924 C53.3324077,74.8392045 50.7914077,76.2464167 47.7528692,77.1315985 C44.6820231,78.02975 40.9359462,78.4869318 36.6228692,78.4869318 C33.4954846,78.4869318 30.4537154,78.3069773 27.5847923,77.9519318 C24.6867923,77.5839167 21.9632538,77.1072803 19.4917154,76.5366136 C16.9717154,75.9610833 14.5583308,75.2947652 12.3177923,74.5571136 C10.1757923,73.8502652 8.14363846,73.1466591 6.27463846,72.4641288 L6.27463846,46.8781591 C7.07263846,44.0150985 8.58463846,41.6627197 10.7718692,39.88425 C13.0027154,38.0749773 15.6067154,36.6385833 18.5095615,35.6139773 C21.4479462,34.5828864 24.5462538,33.8598258 27.7204846,33.4674924 C30.9108692,33.067053 33.9057923,32.8644015 36.6228692,32.8644015 C39.9909462,32.8644015 43.2120231,33.2405227 46.1956385,33.9846591 C49.1647154,34.7239318 51.7703308,35.9544318 53.9397923,37.6437348 C56.1060231,39.3249318 57.8474077,41.6221894 59.1138692,44.4722803 C60.3835615,47.3272348 61.0264846,50.9117348 61.0264846,55.1268864 M58.1511,33.8241591 C55.3645615,31.7554924 52.0724077,30.2737045 48.3651,29.4177045 C44.6739462,28.573053 40.7243308,28.1434318 36.6228692,28.1434318 L31.3276385,28.1434318 C29.3310231,28.1434318 27.2374846,28.3428409 25.1035615,28.733553 C22.9761,29.1242652 20.8324846,29.6641288 18.7308692,30.3417955 C16.6017923,31.034053 14.6294077,31.9273409 12.8718692,32.9989621 C11.0917154,34.0770682 9.52963846,35.412947 8.22602308,36.9709318 C7.43286923,37.9209621 6.78025385,38.9763712 6.27463846,40.1241894 L6.27463846,4.39591667 C6.27463846,2.76173485 5.96448462,1.73388636 5.32802308,1.25400758 C4.14233077,0.362340909 2.47202308,0.362340909 1.11186923,1.22320455 C0.363946154,1.69497727 0.000484615384,2.71634091 0.000484615384,4.34403788 L0.000484615384,77.2450833 C0.000484615384,77.9373409 0.0117923077,78.5825833 0.0344076923,79.1808106 C0.0586384615,79.817947 0.171715385,80.3950985 0.370407692,80.8944318 C0.578792308,81.4148409 0.8841,81.8412197 1.27986923,82.1573561 C1.69340769,82.4880833 2.29433077,82.6566894 3.06971538,82.6566894 C3.83540769,82.6566894 4.44440769,82.4945682 4.88379231,82.1703258 C5.30702308,81.850947 5.62848462,81.4261894 5.83525385,80.9057803 C6.03233077,80.4194167 6.15671538,79.8519924 6.20517692,79.2197197 C6.25202308,78.6198712 6.27463846,77.9681439 6.27463846,77.2856136 L6.27463846,76.31775 C7.68971538,77.0424318 9.29056154,77.7898106 11.0416385,78.5436742 C13.0560231,79.4110227 15.3595615,80.2070379 17.8924846,80.9106439 C20.4173308,81.6126288 23.2733308,82.2011288 26.3829462,82.6583106 C29.4941769,83.11225 32.9397923,83.3424621 36.6228692,83.3424621 C41.4593308,83.3424621 45.8273308,82.84475 49.6057154,81.8622955 C53.4067154,80.8733561 56.6568692,79.2472803 59.2641,77.0294621 C61.8794077,74.8116439 63.8954077,71.8723864 65.2587923,68.2911288 C66.6141,64.7293258 67.3006385,60.3228712 67.3006385,55.1949773 C67.3006385,50.0135833 66.4719462,45.6346894 64.8355615,42.1782652 C63.1991769,38.7185985 60.9505615,35.9090379 58.1511,33.8241591" id="Fill-1" fill="#FFFFFF"></path>
                    <path d="M137.366815,55.8463803 C137.366815,57.6945621 137.240815,59.5573348 136.995277,61.3828197 C136.751354,63.1856076 136.255431,64.9494864 135.520431,66.6225773 C134.790277,68.2908045 133.779046,69.8585167 132.5142,71.2819409 C131.2542,72.7021227 129.569354,73.965047 127.504892,75.0334258 C125.429123,76.1082894 122.878431,76.961047 119.920662,77.5673803 C116.954815,78.1769561 113.371892,78.4866076 109.273662,78.4866076 C105.173815,78.4866076 101.590892,78.1769561 98.6250462,77.5673803 C95.6688923,76.961047 93.1165846,76.1082894 91.0408154,75.0334258 C88.9763538,73.965047 87.2915077,72.7021227 86.0315077,71.2819409 C84.7666615,69.8585167 83.7554308,68.2908045 83.0252769,66.6225773 C82.2918923,64.9527288 81.7975846,63.18885 81.5520462,61.3828197 C81.3048923,59.5605773 81.1805077,57.6978045 81.1805077,55.8463803 C81.1805077,51.6620318 81.7232769,48.0645621 82.7942769,45.1496227 C83.8572,42.2622439 85.5404308,39.8741985 87.7955077,38.0551985 C90.0586615,36.2280924 92.9825077,34.8824864 96.4830462,34.054047 C100.015892,33.2191227 104.319277,32.7959864 109.273662,32.7959864 C114.182815,32.7959864 118.474892,33.2191227 122.028738,34.054047 C125.553508,34.8824864 128.487046,36.2280924 130.751815,38.0551985 C133.006892,39.8741985 134.688508,42.2622439 135.751431,45.1496227 C136.824046,48.0629409 137.366815,51.6620318 137.366815,55.8463803 M135.253892,34.5420318 C132.420508,32.2755773 128.805277,30.5895167 124.506738,29.5276227 C120.235662,28.4738348 115.110046,27.9388348 109.273662,27.9388348 C103.435662,27.9388348 98.3100462,28.4738348 94.0405846,29.5276227 C89.7436615,30.5878955 86.1268154,32.2755773 83.2918154,34.5420318 C80.4471231,36.8182136 78.3115846,39.7477439 76.9482,43.2511833 C75.5928923,46.733547 74.9047385,50.9713955 74.9047385,55.8463803 C74.9047385,60.0809864 75.5105077,63.9329864 76.7058923,67.2986227 C77.9077385,70.6885773 79.8898154,73.6067591 82.5955846,75.9737288 C85.2916615,78.3342136 88.8729692,80.1726682 93.2377385,81.4420773 C97.5831231,82.7033803 102.976892,83.3421379 109.273662,83.3421379 C115.568815,83.3421379 120.9642,82.7033803 125.307969,81.4420773 C129.672738,80.1726682 133.254046,78.3342136 135.951738,75.9737288 C138.657508,73.6051379 140.639585,70.6869561 141.841431,67.2986227 C143.0352,63.9329864 143.640969,60.0809864 143.640969,55.8463803 C143.640969,50.9713955 142.952815,46.733547 141.597508,43.2511833 C140.234123,39.7477439 138.1002,36.8182136 135.253892,34.5420318" id="Fill-3" fill="#FFFFFF"></path>
                    <path d="M99.2271,23.5069273 C99.6212538,23.5069273 100.038023,23.3707455 100.506485,23.0724424 L120.459715,6.82141212 C121.239946,6.19238182 121.637331,5.44013939 121.637331,4.58413939 C121.637331,4.01509394 121.482254,3.44280606 121.176946,2.87862424 C120.884562,2.34200303 120.513023,1.85726061 120.075254,1.4422303 C119.635869,1.0272 119.130254,0.680260606 118.571331,0.411139394 C117.230562,-0.23410303 115.875254,-0.146557576 114.865638,0.868321212 L97.6440231,19.7959727 C97.2030231,20.2385636 96.9784846,20.7508667 96.9784846,21.3182909 C96.9784846,21.9359727 97.2062538,22.4612455 97.6521,22.8827606 C98.0931,23.2977909 98.6229462,23.5069273 99.2271,23.5069273" id="Fill-5" fill="#FFFFFF"></path>
                    <g id="Group-9" transform="translate(150.230769, 27.537135)">
                        <mask id="mask-2" fill="white">
                            <use xlink:href="#path-1"></use>
                        </mask>
                        <g id="Clip-8"></g>
                        <path d="M60.9531462,18.7758697 L60.9531462,44.2078242 C59.1649154,45.3718545 57.2280692,46.3802485 55.1926846,47.2054455 C53.0781462,48.0630667 50.8440692,48.7845061 48.5502231,49.3486879 C46.2579923,49.9128697 43.8963,50.3246576 41.5313769,50.5743242 C39.1632231,50.8223697 36.7756846,50.9488242 34.4317615,50.9488242 C29.3384538,50.9488242 24.9882231,50.5483848 21.5022231,49.7588545 C18.0517615,48.9774303 15.2345308,47.6901879 13.1296846,45.9327939 C11.0345308,44.1851273 9.50153077,41.8586879 8.57268462,39.0199455 C7.63414615,36.1471576 7.15760769,32.5902182 7.15760769,28.4464 C7.15760769,24.3106879 7.72299231,20.7602333 8.83922308,17.8955515 C9.94414615,15.0568091 11.7146077,12.7287485 14.1005308,10.974597 C16.5009923,9.21233939 19.6332231,7.92185455 23.4083769,7.13556667 C27.2109923,6.34603636 31.8633,5.94397576 37.2328385,5.94397576 C41.7284538,5.94397576 45.4826077,6.38818788 48.3935308,7.26364242 C51.2947615,8.13909697 53.6564538,9.24962727 55.4091462,10.5628091 C57.1537615,11.8711273 58.4509154,13.2799606 59.2618385,14.7536424 C60.0840692,16.2500212 60.6559154,17.6361576 60.9531462,18.7758697 M66.5278385,3.56079394 C66.2483769,3.05173333 65.8752231,2.62535455 65.4213,2.29624848 C64.9415308,1.94930909 64.3115308,1.77259697 63.5442231,1.77259697 C62.7155308,1.77259697 61.6380692,2.12277879 61.2051462,3.79100606 C60.9014538,4.96314242 60.7479923,6.35900606 60.7479923,7.93968788 C60.7479923,8.99996061 60.7835308,10.0813091 60.8513769,11.1545515 C60.8546077,11.2194 60.8594538,11.2826273 60.8626846,11.3458545 C60.6058385,10.760597 60.3086077,10.1542636 59.9693769,9.52847576 C59.1003,7.92671818 57.7029923,6.43844545 55.8146077,5.10418788 C53.9407615,3.78127879 51.4417615,2.65453636 48.3838385,1.75476364 C45.3307615,0.856612121 41.3956846,0.402672727 36.6868385,0.402672727 C31.3528385,0.402672727 26.4404538,0.842021212 22.0853769,1.71261212 C17.7028385,2.58806667 13.8937615,4.12011212 10.7631462,6.26821818 C7.61960769,8.4244303 5.16099231,11.3409909 3.45191538,14.9319758 C1.74768462,18.5148545 0.883453846,23.0623545 0.883453846,28.4464 C0.883453846,33.8255818 1.64106923,38.3439 3.13691538,41.8765212 C4.64083846,45.4269758 6.85876154,48.2657182 9.73253077,50.3133091 C12.5901462,52.3479303 16.1149154,53.7908091 20.2066846,54.5981727 C24.2677615,55.3990515 28.9620692,55.8059758 34.1587615,55.8059758 C36.3993,55.8059758 38.7464538,55.6779 41.1356077,55.4266121 C43.5360692,55.173703 45.9429923,54.7684 48.2933769,54.2188091 C50.6502231,53.6659758 52.9828385,52.9104909 55.2266077,51.9685667 C57.2329154,51.1255364 59.1568385,50.0928242 60.9531462,48.8979909 L60.9531462,56.2923394 C60.9531462,59.1748545 60.3183,61.6763848 59.0647615,63.7272182 C57.8079923,65.7861576 56.0375308,67.5062636 53.8034538,68.8372788 C51.5532231,70.1812636 48.8361462,71.1912788 45.7265308,71.8413848 C42.6023769,72.4963545 39.1454538,72.8270818 35.4559154,72.8270818 C31.4917615,72.8270818 28.1139923,72.5644455 25.4179154,72.0456576 C22.7105308,71.5252485 20.3827615,70.9416121 18.4733769,70.3028545 C17.4589154,70.0369758 16.5203769,69.6900364 15.6819923,69.2701424 C14.8209923,68.8372788 14.0391462,68.4287333 13.3380692,68.0428848 C12.6305308,67.6537939 12.0053769,67.310097 11.4561462,67.0117939 C10.8439154,66.6794455 10.3108385,66.5173242 9.82945385,66.5173242 C9.47406923,66.5173242 8.98460769,66.7102485 8.29160769,67.1220364 C7.54691538,67.5646273 7.17053077,68.3055212 7.17053077,69.3236424 C7.17053077,70.2217939 7.56468462,71.0080818 8.34006923,71.6581879 C9.07668462,72.2742485 9.7083,72.6471273 10.1799923,72.7638545 C11.4125308,73.4512485 12.8276077,74.1499909 14.3816077,74.8390061 C15.9420692,75.5296424 17.7432231,76.1473242 19.7382231,76.6774606 C21.7283769,77.2059758 24.0448385,77.635597 26.6262231,77.9549758 C29.2011462,78.2759758 32.1734538,78.4397182 35.4559154,78.4397182 C45.5133,78.4397182 53.3947615,76.5818091 58.8822231,72.9178697 C64.4197615,69.2215061 67.2273,63.626703 67.2273,56.2923394 L67.2273,6.9799303 C67.2273,6.41412727 67.1804538,5.82724848 67.0867615,5.23550606 C66.9866077,4.61944545 66.8008385,4.05526364 66.5278385,3.56079394" id="Fill-7" fill="#FFFFFF" mask="url(#mask-2)"></path>
                    </g>
                    <path d="M249.048531,23.5069273 C249.442685,23.5069273 249.859454,23.3707455 250.327915,23.0724424 L270.281146,6.82141212 C271.061377,6.19238182 271.458762,5.44013939 271.458762,4.58413939 C271.458762,4.01509394 271.303685,3.44280606 270.998377,2.87862424 C270.705992,2.34200303 270.334454,1.85726061 269.896685,1.4422303 C269.4573,1.0272 268.951685,0.680260606 268.392762,0.411139394 C267.051992,-0.23410303 265.696685,-0.146557576 264.687069,0.868321212 L247.465454,19.7959727 C247.024454,20.2385636 246.799915,20.7508667 246.799915,21.3182909 C246.799915,21.9359727 247.027685,22.4612455 247.473531,22.8827606 C247.914531,23.2977909 248.444377,23.5069273 249.048531,23.5069273" id="Fill-10" fill="#FFFFFF"></path>
                    <g id="Group-14" transform="translate(224.538462, 27.537135)">
                        <mask id="mask-4" fill="white">
                            <use xlink:href="#path-3"></use>
                        </mask>
                        <g id="Clip-13"></g>
                        <path d="M62.6497846,28.3092455 C62.6497846,30.1574273 62.5237846,32.0202 62.2782462,33.8456848 C62.0343231,35.6484727 61.5384,37.4123515 60.8034,39.0854424 C60.0732462,40.7536697 59.0620154,42.3213818 57.7971692,43.7448061 C56.5371692,45.1649879 54.8523231,46.4279121 52.7878615,47.4962909 C50.7120923,48.5711545 48.1614,49.4239121 45.2036308,50.0302455 C42.2377846,50.6398212 38.6548615,50.9494727 34.5566308,50.9494727 C30.4567846,50.9494727 26.8738615,50.6398212 23.9080154,50.0302455 C20.9518615,49.4239121 18.3995538,48.5711545 16.3237846,47.4962909 C14.2593231,46.4279121 12.5744769,45.1649879 11.3144769,43.7448061 C10.0496308,42.3213818 9.0384,40.7536697 8.30824615,39.0854424 C7.57486154,37.4155939 7.08055385,35.6517152 6.83501538,33.8456848 C6.58786154,32.0234424 6.46347692,30.1606697 6.46347692,28.3092455 C6.46347692,24.124897 7.00624615,20.5274273 8.07724615,17.6124879 C9.14016923,14.7251091 10.8234,12.3370636 13.0784769,10.5180636 C15.3416308,8.69095758 18.2654769,7.34535152 21.7660154,6.51691212 C25.2988615,5.68198788 29.6022462,5.25885152 34.5566308,5.25885152 C39.4657846,5.25885152 43.7578615,5.68198788 47.3117077,6.51691212 C50.8364769,7.34535152 53.7700154,8.69095758 56.0347846,10.5180636 C58.2898615,12.3370636 59.9714769,14.7251091 61.0344,17.6124879 C62.1070154,20.5258061 62.6497846,24.124897 62.6497846,28.3092455 M66.8804769,15.7140485 C65.5170923,12.2106091 63.3831692,9.28107879 60.5368615,7.00489697 C57.7034769,4.73844242 54.0882462,3.05238182 49.7897077,1.99048788 C45.5186308,0.9367 40.3930154,0.4017 34.5566308,0.4017 C28.7186308,0.4017 23.5930154,0.9367 19.3235538,1.99048788 C15.0266308,3.05076061 11.4097846,4.73844242 8.57478462,7.00489697 C5.73009231,9.28107879 3.59455385,12.2106091 2.23116923,15.7140485 C0.875861538,19.1964121 0.187707692,23.4342606 0.187707692,28.3092455 C0.187707692,32.5438515 0.793476923,36.3958515 1.98886154,39.7614879 C3.19070769,43.1514424 5.17278462,46.0696242 7.87855385,48.4365939 C10.5746308,50.7970788 14.1559385,52.6355333 18.5207077,53.9049424 C22.8660923,55.1662455 28.2598615,55.805003 34.5566308,55.805003 C40.8517846,55.805003 46.2471692,55.1662455 50.5909385,53.9049424 C54.9557077,52.6355333 58.5370154,50.7970788 61.2347077,48.4365939 C63.9404769,46.068003 65.9225538,43.1498212 67.1244,39.7614879 C68.3181692,36.3958515 68.9239385,32.5438515 68.9239385,28.3092455 C68.9239385,23.4342606 68.2357846,19.1964121 66.8804769,15.7140485" id="Fill-12" fill="#FFFFFF" mask="url(#mask-4)"></path>
                    </g>
                </g>
            </g>
        </g>
    </g>
</svg>